<?xml version="1.0" encoding="utf-8"?>
<!-- Generator: Adobe Illustrator 22.0.1, SVG Export Plug-In . SVG Version: 6.00 Build 0)  -->
<svg version="1.1" id="content" xmlns="http://www.w3.org/2000/svg" xmlns:xlink="http://www.w3.org/1999/xlink" x="0px" y="0px"
	 viewBox="0 0 1271 976" style="enable-background:new 0 0 1271 976;" xml:space="preserve">
<style type="text/css">
	.st0{fill:#636363;}
	.st1{fill:none;}
	.st2{clip-path:url(#SVGID_2_);}
	.st3{fill:#455A64;}
	.st4{fill:url(#SVGID_3_);}
	.st5{opacity:0.2;fill:#263238;enable-background:new    ;}
	.st6{clip-path:url(#SVGID_5_);}
	.st7{fill:#DB4437;}
	.st8{opacity:0.2;fill:#FFFFFF;enable-background:new    ;}
	.st9{opacity:0.2;fill:#3E2723;enable-background:new    ;}
	.st10{fill:url(#SVGID_6_);fill-opacity:0.1;}
</style>
<symbol  id="logo_x5F_dark" viewBox="-208 -68 416 136">
	<path class="st0" d="M-207.3,15.4c0,29,24.3,52.5,53.3,52.5c16,0,27.4-6.3,36-14.5l-10.2-10.1c-6.1,5.8-14.4,10.3-25.8,10.3
		c-21.1,0-37.6-17-37.6-38.1s16.5-38.1,37.6-38.1c13.7,0,21.5,5.5,26.5,10.5c4.1,4.1,6.8,10,7.8,18H-154v14.3h48.3
		c0.5-2.6,0.8-5.6,0.8-9c0-10.8-2.9-24.1-12.4-33.5C-126.6-31.9-138.4-37-154-37C-183-37-207.3-13.5-207.3,15.4z"/>
	<path class="st0" d="M-66,30.5c-18.7,0-33.9-14.2-33.9-33.8c0-19.5,15.2-33.8,33.9-33.8s33.9,14.3,33.9,33.8
		C-32.1,16.3-47.3,30.5-66,30.5z M-66-23.7c-10.2,0-19.1,8.4-19.1,20.5c0,12.2,8.8,20.5,19.1,20.5c10.2,0,19.1-8.3,19.1-20.5
		C-46.9-15.3-55.8-23.7-66-23.7z"/>
	<path class="st0" d="M8,30.5c-18.7,0-33.9-14.2-33.9-33.8c0-19.5,15.2-33.8,33.9-33.8S41.9-22.8,41.9-3.3
		C41.9,16.3,26.7,30.5,8,30.5z M8-23.7c-10.2,0-19.1,8.4-19.1,20.5C-11.1,9-2.3,17.3,8,17.3S27.1,9,27.1-3.2
		C27.1-15.3,18.2-23.7,8-23.7z"/>
	<path class="st0" d="M98.8,28.5V23h-0.5c-3.3,4-9.7,7.6-17.8,7.6c-16.9,0-32.4-14.8-32.4-33.9C48.1-22.2,63.6-37,80.5-37
		c8.1,0,14.5,3.6,17.8,7.7h0.5v-4.9c0-12.9-6.9-19.8-18-19.8c-9.1,0-14.7,6.5-17,12l-12.9-5.4c3.7-9,13.6-20,30-20
		c17.4,0,32.1,10.2,32.1,35.2v60.7C113,28.5,98.8,28.5,98.8,28.5z M81.8-23.7C71.6-23.7,63-15.1,63-3.3c0,11.9,8.6,20.6,18.8,20.6
		c10.1,0,18-8.7,18-20.6C99.9-15.2,91.9-23.7,81.8-23.7z"/>
	<rect x="123.2" y="-35" class="st0" width="14.8" height="99.3"/>
	<path class="st0" d="M178.7-23.7c-7.6,0-12.9,3.5-16.4,10.2l45.2,18.7L206,9c-2.8,7.6-11.4,21.5-28.9,21.5
		c-17.4,0-31.9-13.7-31.9-33.8c0-18.9,14.3-33.8,33.5-33.8c15.5,0,24.4,9.5,28.2,15l-11.5,7.7C191.5-20,186.3-23.7,178.7-23.7z
		 M177.6,17.5c5.9,0,10.9-2.9,12.5-7.2L159.9-2.2C159.5,10.8,170,17.5,177.6,17.5z"/>
	<rect x="-208" y="-68" class="st1" width="416" height="136"/>
</symbol>
<g>
	<g id="XMLID_6_">
		<rect id="XMLID_60_" x="128" y="745" class="st1" width="1015" height="136"/>
		<g>
			<g>
				<rect x="128" y="745" class="st1" width="1015" height="136"/>
				<g>
					<path class="st0" d="M164.1,756.3h13.3L212,848h-13.1l-8.8-24.8h-38.5l-9,24.8h-13.1L164.1,756.3z M186,812.2l-15-41.3h-0.5
						l-15,41.3H186z"/>
					<path class="st0" d="M213.2,816.6c0-19.2,14-33.4,29.8-33.4c10,0,17.8,5,21.4,10.8h0.5l-0.5-8.7v-28.9h11.8V848H265v-8.7h-0.5
						c-3.6,5.8-11.4,10.8-21.4,10.8C227.2,850,213.2,835.8,213.2,816.6z M265,816.6c0-14.3-9.5-22.7-20-22.7s-20,8.6-20,22.7
						c0,14.1,9.5,22.7,20,22.7S265,831,265,816.6z"/>
					<path class="st0" d="M292.6,756.3h11.8l31.9,55.8h0.5l31.9-55.8h11.8V848h-11.8v-54.4l0.5-15.4h-0.5L340,828.5h-6.9l-28.7-50.3
						h-0.5l0.5,15.4V848h-11.8V756.3z"/>
					<path class="st0" d="M457.7,816.6c0,19.1-13.4,33.4-32.3,33.4s-32.3-14.3-32.3-33.4c0-19.1,13.4-33.4,32.3-33.4
						S457.7,797.6,457.7,816.6z M446,816.6c0-14.3-10-22.7-20.5-22.7s-20.5,8.3-20.5,22.7c0,14.3,10,22.7,20.5,22.7
						S446,831,446,816.6z"/>
					<path class="st0" d="M479,839.3h-0.5v8.7h-11.3v-91.7H479v28.9l-0.5,8.7h0.5c3.6-5.8,11.4-10.8,21.4-10.8
						c15.9,0,29.8,14.2,29.8,33.4s-14,33.4-29.8,33.4C490.4,850,482.6,845.1,479,839.3z M518.4,816.6c0-14.1-9.5-22.7-20-22.7
						s-20,8.3-20,22.7c0,14.3,9.5,22.7,20,22.7S518.4,830.7,518.4,816.6z"/>
					<path class="st0" d="M575.9,839.3h-0.5v8.7h-11.3v-91.7h11.8v28.9l-0.5,8.7h0.5c3.6-5.8,11.4-10.8,21.4-10.8
						c15.9,0,29.8,14.2,29.8,33.4s-14,33.4-29.8,33.4C587.3,850,579.5,845.1,575.9,839.3z M615.3,816.6c0-14.1-9.5-22.7-20-22.7
						s-20,8.3-20,22.7c0,14.3,9.5,22.7,20,22.7S615.3,830.7,615.3,816.6z"/>
					<path class="st0" d="M642.4,875.6L657,844l-25.9-58.8H644l18.7,45.1h0.3l18.2-45.1H694l-39.3,90.4L642.4,875.6L642.4,875.6z"/>
				</g>
			</g>
			
				<use xlink:href="#logo_x5F_dark"  width="416" height="136" id="XMLID_9_" x="-208" y="-68" transform="matrix(1 0 0 -1 935 813)" style="overflow:visible;"/>
		</g>
	</g>
	<g>
		<rect x="347.5" y="128" class="st1" width="576" height="528"/>
		<g>
			<g>
				<defs>
					<path id="SVGID_1_" d="M731.5,128h-96c-145.8,0-264,118.2-264,264s118.2,264,264,264V488c-53,0-96-43-96-96s43-96,96-96h96v360
						h168V296L731.5,128z"/>
				</defs>
				<clipPath id="SVGID_2_">
					<use xlink:href="#SVGID_1_"  style="overflow:visible;"/>
				</clipPath>
				<g class="st2">
					<rect x="731.5" y="296" class="st3" width="168" height="360"/>
					
						<linearGradient id="SVGID_3_" gradientUnits="userSpaceOnUse" x1="774.625" y1="720.875" x2="941.3151" y2="554.1849" gradientTransform="matrix(1 0 0 -1 0 976)">
						<stop  offset="0" style="stop-color:#263238;stop-opacity:0.2"/>
						<stop  offset="1" style="stop-color:#263238;stop-opacity:0"/>
					</linearGradient>
					<polygon class="st4" points="899.5,296 731.5,296 899.5,464 					"/>
					<rect x="731.5" y="653" class="st5" width="168" height="3"/>
					<polyline class="st5" points="731.5,299 899.5,299 899.5,296 731.5,296 					"/>
				</g>
			</g>
			<g>
				<defs>
					<path id="SVGID_4_" d="M731.5,128h-96c-145.8,0-264,118.2-264,264s118.2,264,264,264V488c-53,0-96-43-96-96s43-96,96-96h96v360
						h168V296L731.5,128z"/>
				</defs>
				<clipPath id="SVGID_5_">
					<use xlink:href="#SVGID_4_"  style="overflow:visible;"/>
				</clipPath>
				<g class="st6">
					<g>
						
							<image style="overflow:visible;opacity:0.2;enable-background:new    ;" width="552" height="552" xlink:href="E43EDF402262EB4D.png"  transform="matrix(1 0 0 1 363.5 120)">
						</image>
						<g>
							<path class="st7" d="M731.5,128h-96c-145.8,0-264,118.2-264,264s118.2,264,264,264V488c-53,0-96-43-96-96s43-96,96-96h96h168
								L731.5,128z"/>
						</g>
					</g>
					<path class="st8" d="M635.5,491v-3c-52.5,0-95.2-42.2-96-94.5c0,0.5,0,1,0,1.5C539.5,448,582.5,491,635.5,491z"/>
					<path class="st8" d="M731.5,128h-96c-145.8,0-264,118.2-264,264c0,0.5,0,1,0,1.5c0.8-145.1,118.7-262.5,264-262.5h96
						l165.1,165.1l2.9-0.1L731.5,128z"/>
					<path class="st9" d="M635.5,656v-3c-145.3,0-263.2-117.4-264-262.5c0,0.5,0,1,0,1.5C371.5,537.8,489.7,656,635.5,656z"/>
					<path class="st9" d="M731.5,293h-96c-53,0-96,43-96,96c0,0.5,0,1,0,1.5c0.8-52.3,43.4-94.5,96-94.5h96h168l-3-3H731.5z"/>
				</g>
			</g>
		</g>
		
			<radialGradient id="SVGID_6_" cx="450.25" cy="758" r="625.3098" gradientTransform="matrix(1 0 0 -1 0 976)" gradientUnits="userSpaceOnUse">
			<stop  offset="0" style="stop-color:#FFFFFF"/>
			<stop  offset="1" style="stop-color:#FFFFFF;stop-opacity:0"/>
		</radialGradient>
		<path class="st10" d="M731.5,128h-96c-145.8,0-264,118.2-264,264s118.2,264,264,264V488c-53,0-96-43-96-96s43-96,96-96h96v360h168
			V296L731.5,128z"/>
	</g>
</g>
</svg>
