<?xml version="1.0" encoding="utf-8"?>
<!-- Generator: Adobe Illustrator 22.0.1, SVG Export Plug-In . SVG Version: 6.00 Build 0)  -->
<svg version="1.1" id="Layer_1" xmlns="http://www.w3.org/2000/svg" xmlns:xlink="http://www.w3.org/1999/xlink" x="0px" y="0px"
	 viewBox="0 0 1247 200" style="enable-background:new 0 0 1247 200;" xml:space="preserve">
<style type="text/css">
	.st0{fill:none;}
	.st1{fill:#636363;}
	.st2{clip-path:url(#SVGID_2_);}
	.st3{fill:#455A64;}
	.st4{fill:url(#SVGID_3_);}
	.st5{opacity:0.2;fill:#263238;enable-background:new    ;}
	.st6{clip-path:url(#SVGID_5_);}
	.st7{fill:#DB4437;}
	.st8{opacity:0.2;fill:#FFFFFF;enable-background:new    ;}
	.st9{opacity:0.2;fill:#3E2723;enable-background:new    ;}
	.st10{fill:url(#SVGID_6_);fill-opacity:0.1;}
</style>
<rect class="st0" width="1247" height="200"/>
<rect class="st0" width="1247" height="200"/>
<g>
	<path class="st1" d="M268.1,52.3h13.3L316,144h-13.1l-8.8-24.8h-38.5l-9,24.8h-13.1L268.1,52.3z M290,108.2l-15-41.3h-0.5l-15,41.3
		H290z"/>
	<path class="st1" d="M317.2,112.6c0-19.2,14-33.4,29.8-33.4c10,0,17.8,5,21.4,10.8h0.5l-0.5-8.7v-29h11.8V144H369v-8.7h-0.5
		c-3.6,5.8-11.4,10.8-21.4,10.8C331.2,146,317.2,131.8,317.2,112.6 M369,112.6c0-14.3-9.5-22.7-20-22.7s-20,8.6-20,22.7
		s9.5,22.7,20,22.7C359.5,135.3,369,127,369,112.6"/>
	<polygon class="st1" points="396.6,52.3 408.4,52.3 440.3,108.2 440.8,108.2 472.6,52.3 484.4,52.3 484.4,144 472.6,144 
		472.6,89.6 473.2,74.2 472.6,74.2 444,124.5 437.1,124.5 408.4,74.2 407.9,74.2 408.4,89.6 408.4,144 396.6,144 	"/>
	<path class="st1" d="M561.7,112.6c0,19.1-13.4,33.4-32.3,33.4c-18.8,0-32.3-14.3-32.3-33.4s13.4-33.4,32.3-33.4
		C548.3,79.2,561.7,93.6,561.7,112.6 M550,112.6c0-14.3-10-22.7-20.5-22.7S509,98.3,509,112.6s10,22.7,20.5,22.7S550,127,550,112.6"
		/>
	<path class="st1" d="M583,135.3h-0.5v8.7h-11.3V52.3H583v28.9l-0.5,8.7h0.5c3.6-5.8,11.4-10.8,21.4-10.8
		c15.9,0,29.8,14.2,29.8,33.4s-14,33.4-29.8,33.4C594.4,146,586.6,141.1,583,135.3 M622.4,112.6c0-14.1-9.5-22.7-20-22.7
		s-20,8.3-20,22.7s9.5,22.7,20,22.7C612.9,135.3,622.4,126.7,622.4,112.6"/>
	<path class="st1" d="M679.9,135.3h-0.5v8.7h-11.3V52.3h11.8v28.9l-0.5,8.7h0.5c3.6-5.8,11.4-10.8,21.4-10.8
		c15.9,0,29.8,14.2,29.8,33.4s-14,33.4-29.8,33.4C691.3,146,683.4,141.1,679.9,135.3 M719.3,112.6c0-14.1-9.5-22.7-20-22.7
		s-20,8.3-20,22.7s9.5,22.7,20,22.7C709.8,135.3,719.3,126.7,719.3,112.6"/>
	<polygon class="st1" points="746.4,171.6 761,140 735.2,81.3 748,81.3 766.6,126.3 766.9,126.3 785.1,81.3 797.9,81.3 758.6,171.6 
			"/>
	<g>
		<g>
			<path class="st1" d="M831.7,93.6c0-28.9,24.3-52.5,53.3-52.5c16,0,27.4,6.3,36,14.5l-10.1,10.1c-6.1-5.8-14.5-10.2-25.9-10.2
				c-21.1,0-37.6,17-37.6,38.1s16.5,38.1,37.6,38.1c13.7,0,21.5-5.5,26.5-10.5c4.1-4.1,6.8-10,7.8-18H885V88.8h48.3
				c0.5,2.6,0.8,5.6,0.8,9c0,10.8-2.9,24.1-12.4,33.5c-9.2,9.6-21,14.7-36.6,14.7C856,146,831.7,122.5,831.7,93.6"/>
			<path class="st1" d="M973,78.5c-18.7,0-33.9,14.2-33.9,33.8c0,19.5,15.2,33.8,33.9,33.8s33.9-14.3,33.9-33.8
				C1006.9,92.7,991.7,78.5,973,78.5 M973,132.7c-10.2,0-19.1-8.4-19.1-20.5c0-12.2,8.8-20.5,19.1-20.5c10.2,0,19.1,8.3,19.1,20.5
				C992.1,124.3,983.2,132.7,973,132.7"/>
			<path class="st1" d="M1047,78.5c-18.7,0-33.9,14.2-33.9,33.8c0,19.5,15.2,33.8,33.9,33.8c18.7,0,33.9-14.3,33.9-33.8
				C1080.9,92.7,1065.7,78.5,1047,78.5 M1047,132.7c-10.2,0-19.1-8.4-19.1-20.5c0-12.2,8.8-20.5,19.1-20.5s19.1,8.3,19.1,20.5
				C1066.1,124.3,1057.2,132.7,1047,132.7"/>
			<path class="st1" d="M1137.8,80.5V86h-0.5c-3.3-4-9.7-7.6-17.8-7.6c-16.9,0-32.4,14.8-32.4,33.9c0,18.9,15.5,33.7,32.4,33.7
				c8.1,0,14.5-3.6,17.8-7.7h0.5v4.9c0,12.9-6.9,19.8-18,19.8c-9.1,0-14.7-6.5-17-12l-12.9,5.4c3.7,9,13.6,20,30,20
				c17.4,0,32.1-10.2,32.1-35.2V80.5H1137.8z M1120.8,132.7c-10.2,0-18.8-8.6-18.8-20.4c0-11.9,8.6-20.6,18.8-20.6
				c10.1,0,18,8.7,18,20.6C1138.9,124.2,1130.9,132.7,1120.8,132.7"/>
			<rect x="1162.2" y="44.7" class="st1" width="14.8" height="99.3"/>
			<path class="st1" d="M1217.7,132.7c-7.6,0-12.9-3.5-16.4-10.2l45.2-18.7l-1.5-3.8c-2.8-7.6-11.4-21.5-28.9-21.5
				c-17.4,0-31.9,13.7-31.9,33.8c0,18.9,14.3,33.8,33.5,33.8c15.5,0,24.5-9.5,28.2-15l-11.5-7.7
				C1230.5,129,1225.3,132.7,1217.7,132.7 M1216.6,91.5c5.9,0,10.9,2.9,12.5,7.2l-30.2,12.5C1198.5,98.2,1209,91.5,1216.6,91.5"/>
		</g>
	</g>
</g>
<g>
	<rect x="0" y="8" class="st0" width="191.9" height="176"/>
	<g>
		<g>
			<defs>
				<path id="SVGID_1_" d="M128,8H96C47.4,8,8,47.4,8,96s39.4,88,88,88v-56c-17.7,0-32-14.3-32-32s14.3-32,32-32h32v120h56V64L128,8
					z"/>
			</defs>
			<clipPath id="SVGID_2_">
				<use xlink:href="#SVGID_1_"  style="overflow:visible;"/>
			</clipPath>
			<g class="st2">
				<rect x="128" y="64" class="st3" width="56" height="120"/>
				
					<linearGradient id="SVGID_3_" gradientUnits="userSpaceOnUse" x1="142.3843" y1="151.595" x2="197.9321" y2="96.0472" gradientTransform="matrix(1 0 0 -1 0 202)">
					<stop  offset="0" style="stop-color:#263238;stop-opacity:0.2"/>
					<stop  offset="1" style="stop-color:#263238;stop-opacity:0"/>
				</linearGradient>
				<polygon class="st4" points="184,64 128,64 184,120 				"/>
				<rect x="128" y="183" class="st5" width="56" height="1"/>
				<polyline class="st5" points="128,65 184,65 184,64 128,64 				"/>
			</g>
		</g>
		<g>
			<defs>
				<path id="SVGID_4_" d="M128,8H96C47.4,8,8,47.4,8,96s39.4,88,88,88v-56c-17.7,0-32-14.3-32-32s14.3-32,32-32h32v120h56V64L128,8
					z"/>
			</defs>
			<clipPath id="SVGID_5_">
				<use xlink:href="#SVGID_4_"  style="overflow:visible;"/>
			</clipPath>
			<g class="st6">
				<g>
					
						<image style="overflow:visible;opacity:0.2;enable-background:new    ;" width="552" height="552" xlink:href="D2836AB160014CD6.png"  transform="matrix(0.3332 0 0 0.3332 5.3811 5.376)">
					</image>
					<g>
						<path class="st7" d="M128,8H96C47.4,8,8,47.4,8,96s39.4,88,88,88v-56c-17.7,0-32-14.3-32-32s14.3-32,32-32h32h56L128,8z"/>
					</g>
				</g>
				<path class="st8" d="M96,129v-1c-17.5,0-31.7-14.1-32-31.5c0,0.2,0,0.3,0,0.5C64,114.7,78.4,129,96,129z"/>
				<path class="st8" d="M128,8H96C47.4,8,8,47.4,8,96c0,0.2,0,0.3,0,0.5C8.3,48.2,47.6,9,96,9h32l55,55l1,0L128,8z"/>
				<path class="st9" d="M96,184v-1c-48.4,0-87.7-39.1-88-87.5c0,0.2,0,0.3,0,0.5C8,144.6,47.4,184,96,184z"/>
				<path class="st9" d="M128,63H96c-17.7,0-32,14.3-32,32c0,0.2,0,0.3,0,0.5C64.3,78.1,78.5,64,96,64h32h56l-1-1H128z"/>
			</g>
		</g>
	</g>
	
		<radialGradient id="SVGID_6_" cx="34.2896" cy="163.9665" r="208.3781" gradientTransform="matrix(1 0 0 -1 0 202)" gradientUnits="userSpaceOnUse">
		<stop  offset="0" style="stop-color:#FFFFFF"/>
		<stop  offset="1" style="stop-color:#FFFFFF;stop-opacity:0"/>
	</radialGradient>
	<path class="st10" d="M128,8H96C47.4,8,8,47.4,8,96s39.4,88,88,88v-56c-17.7,0-32-14.3-32-32s14.3-32,32-32h32v120h56V64L128,8z"/>
</g>
</svg>
